<mxfile host="app.diagrams.net" modified="2023-09-03T15:40:51.110Z" agent="Mozilla/5.0 (Windows NT 10.0; Win64; x64) AppleWebKit/537.36 (KHTML, like Gecko) Chrome/116.0.0.0 Safari/537.36" etag="XZ9scagC8SQ-tI7NdMtO" version="21.7.1" type="github">
  <diagram name="Page-1" id="13e1069c-82ec-6db2-03f1-153e76fe0fe0">
    <mxGraphModel dx="878" dy="480" grid="1" gridSize="10" guides="1" tooltips="1" connect="1" arrows="1" fold="1" page="1" pageScale="1" pageWidth="1100" pageHeight="850" background="none" math="0" shadow="0">
      <root>
        <mxCell id="0" />
        <mxCell id="1" parent="0" />
        <mxCell id="BiDLs_91Af1u3nNMaBhe-31" value="备份UI客户端" style="shape=umlLifeline;perimeter=lifelinePerimeter;whiteSpace=wrap;html=1;container=1;dropTarget=0;collapsible=0;recursiveResize=0;outlineConnect=0;portConstraint=eastwest;newEdgeStyle={&quot;curved&quot;:0,&quot;rounded&quot;:0};" vertex="1" parent="1">
          <mxGeometry x="40" y="42" width="100" height="1147" as="geometry" />
        </mxCell>
        <mxCell id="BiDLs_91Af1u3nNMaBhe-36" value="" style="html=1;points=[[0,0,0,0,5],[0,1,0,0,-5],[1,0,0,0,5],[1,1,0,0,-5]];perimeter=orthogonalPerimeter;outlineConnect=0;targetShapes=umlLifeline;portConstraint=eastwest;newEdgeStyle={&quot;curved&quot;:0,&quot;rounded&quot;:0};" vertex="1" parent="BiDLs_91Af1u3nNMaBhe-31">
          <mxGeometry x="45" y="67" width="10" height="93" as="geometry" />
        </mxCell>
        <mxCell id="BiDLs_91Af1u3nNMaBhe-91" value="" style="html=1;points=[[0,0,0,0,5],[0,1,0,0,-5],[1,0,0,0,5],[1,1,0,0,-5]];perimeter=orthogonalPerimeter;outlineConnect=0;targetShapes=umlLifeline;portConstraint=eastwest;newEdgeStyle={&quot;curved&quot;:0,&quot;rounded&quot;:0};" vertex="1" parent="BiDLs_91Af1u3nNMaBhe-31">
          <mxGeometry x="45" y="997" width="10" height="80" as="geometry" />
        </mxCell>
        <mxCell id="BiDLs_91Af1u3nNMaBhe-32" value="服务端" style="shape=umlLifeline;perimeter=lifelinePerimeter;whiteSpace=wrap;html=1;container=1;dropTarget=0;collapsible=0;recursiveResize=0;outlineConnect=0;portConstraint=eastwest;newEdgeStyle={&quot;curved&quot;:0,&quot;rounded&quot;:0};" vertex="1" parent="1">
          <mxGeometry x="240" y="40" width="100" height="1359" as="geometry" />
        </mxCell>
        <mxCell id="BiDLs_91Af1u3nNMaBhe-37" value="" style="html=1;points=[[0,0,0,0,5],[0,1,0,0,-5],[1,0,0,0,5],[1,1,0,0,-5]];perimeter=orthogonalPerimeter;outlineConnect=0;targetShapes=umlLifeline;portConstraint=eastwest;newEdgeStyle={&quot;curved&quot;:0,&quot;rounded&quot;:0};" vertex="1" parent="BiDLs_91Af1u3nNMaBhe-32">
          <mxGeometry x="45" y="81.5" width="10" height="68" as="geometry" />
        </mxCell>
        <mxCell id="BiDLs_91Af1u3nNMaBhe-42" value="" style="html=1;points=[[0,0,0,0,5],[0,1,0,0,-5],[1,0,0,0,5],[1,1,0,0,-5]];perimeter=orthogonalPerimeter;outlineConnect=0;targetShapes=umlLifeline;portConstraint=eastwest;newEdgeStyle={&quot;curved&quot;:0,&quot;rounded&quot;:0};" vertex="1" parent="BiDLs_91Af1u3nNMaBhe-32">
          <mxGeometry x="45" y="189" width="10" height="781" as="geometry" />
        </mxCell>
        <mxCell id="BiDLs_91Af1u3nNMaBhe-56" value="根据客户端id&lt;br&gt;返回需要备份&lt;br&gt;的文件列表" style="html=1;align=left;spacingLeft=2;endArrow=block;rounded=0;edgeStyle=orthogonalEdgeStyle;curved=0;rounded=0;exitX=0;exitY=0;exitDx=0;exitDy=5;exitPerimeter=0;" edge="1" target="BiDLs_91Af1u3nNMaBhe-42" parent="BiDLs_91Af1u3nNMaBhe-32" source="BiDLs_91Af1u3nNMaBhe-42">
          <mxGeometry relative="1" as="geometry">
            <mxPoint x="-20" y="169" as="sourcePoint" />
            <Array as="points">
              <mxPoint x="45" y="209" />
              <mxPoint x="-40" y="209" />
              <mxPoint x="-40" y="269" />
            </Array>
            <mxPoint x="-25" y="249" as="targetPoint" />
          </mxGeometry>
        </mxCell>
        <mxCell id="BiDLs_91Af1u3nNMaBhe-58" value="验证文件MD5&lt;br&gt;是否上传过" style="html=1;align=left;spacingLeft=2;endArrow=block;rounded=0;edgeStyle=orthogonalEdgeStyle;curved=0;rounded=0;" edge="1" parent="BiDLs_91Af1u3nNMaBhe-32" source="BiDLs_91Af1u3nNMaBhe-42" target="BiDLs_91Af1u3nNMaBhe-42">
          <mxGeometry relative="1" as="geometry">
            <mxPoint x="39" y="334" as="sourcePoint" />
            <Array as="points">
              <mxPoint x="-46" y="349" />
              <mxPoint x="-46" y="409" />
            </Array>
            <mxPoint x="39" y="409" as="targetPoint" />
          </mxGeometry>
        </mxCell>
        <mxCell id="BiDLs_91Af1u3nNMaBhe-92" value="" style="html=1;points=[[0,0,0,0,5],[0,1,0,0,-5],[1,0,0,0,5],[1,1,0,0,-5]];perimeter=orthogonalPerimeter;outlineConnect=0;targetShapes=umlLifeline;portConstraint=eastwest;newEdgeStyle={&quot;curved&quot;:0,&quot;rounded&quot;:0};" vertex="1" parent="BiDLs_91Af1u3nNMaBhe-32">
          <mxGeometry x="45" y="999" width="10" height="80" as="geometry" />
        </mxCell>
        <mxCell id="BiDLs_91Af1u3nNMaBhe-96" value="" style="html=1;points=[[0,0,0,0,5],[0,1,0,0,-5],[1,0,0,0,5],[1,1,0,0,-5]];perimeter=orthogonalPerimeter;outlineConnect=0;targetShapes=umlLifeline;portConstraint=eastwest;newEdgeStyle={&quot;curved&quot;:0,&quot;rounded&quot;:0};" vertex="1" parent="BiDLs_91Af1u3nNMaBhe-32">
          <mxGeometry x="45" y="1119" width="10" height="201" as="geometry" />
        </mxCell>
        <mxCell id="BiDLs_91Af1u3nNMaBhe-33" value="WIndows服务" style="shape=umlLifeline;perimeter=lifelinePerimeter;whiteSpace=wrap;html=1;container=1;dropTarget=0;collapsible=0;recursiveResize=0;outlineConnect=0;portConstraint=eastwest;newEdgeStyle={&quot;curved&quot;:0,&quot;rounded&quot;:0};" vertex="1" parent="1">
          <mxGeometry x="410" y="40" width="100" height="1359" as="geometry" />
        </mxCell>
        <mxCell id="BiDLs_91Af1u3nNMaBhe-41" value="" style="html=1;points=[[0,0,0,0,5],[0,1,0,0,-5],[1,0,0,0,5],[1,1,0,0,-5]];perimeter=orthogonalPerimeter;outlineConnect=0;targetShapes=umlLifeline;portConstraint=eastwest;newEdgeStyle={&quot;curved&quot;:0,&quot;rounded&quot;:0};" vertex="1" parent="BiDLs_91Af1u3nNMaBhe-33">
          <mxGeometry x="45" y="189" width="10" height="781" as="geometry" />
        </mxCell>
        <mxCell id="BiDLs_91Af1u3nNMaBhe-69" value="根据文件大小&lt;br style=&quot;border-color: var(--border-color);&quot;&gt;来分单个文件&lt;br style=&quot;border-color: var(--border-color);&quot;&gt;上传和切片上&lt;br style=&quot;border-color: var(--border-color);&quot;&gt;传" style="html=1;align=left;spacingLeft=2;endArrow=block;rounded=0;edgeStyle=orthogonalEdgeStyle;curved=0;rounded=0;" edge="1" parent="BiDLs_91Af1u3nNMaBhe-33">
          <mxGeometry relative="1" as="geometry">
            <mxPoint x="55" y="555" as="sourcePoint" />
            <Array as="points">
              <mxPoint x="100" y="555" />
              <mxPoint x="100" y="585" />
            </Array>
            <mxPoint x="55" y="585" as="targetPoint" />
            <mxPoint as="offset" />
          </mxGeometry>
        </mxCell>
        <mxCell id="BiDLs_91Af1u3nNMaBhe-95" value="" style="html=1;points=[[0,0,0,0,5],[0,1,0,0,-5],[1,0,0,0,5],[1,1,0,0,-5]];perimeter=orthogonalPerimeter;outlineConnect=0;targetShapes=umlLifeline;portConstraint=eastwest;newEdgeStyle={&quot;curved&quot;:0,&quot;rounded&quot;:0};" vertex="1" parent="BiDLs_91Af1u3nNMaBhe-33">
          <mxGeometry x="45" y="1119" width="10" height="201" as="geometry" />
        </mxCell>
        <mxCell id="BiDLs_91Af1u3nNMaBhe-34" value="Minio" style="shape=umlLifeline;perimeter=lifelinePerimeter;whiteSpace=wrap;html=1;container=1;dropTarget=0;collapsible=0;recursiveResize=0;outlineConnect=0;portConstraint=eastwest;newEdgeStyle={&quot;curved&quot;:0,&quot;rounded&quot;:0};" vertex="1" parent="1">
          <mxGeometry x="600" y="40" width="100" height="1359" as="geometry" />
        </mxCell>
        <mxCell id="BiDLs_91Af1u3nNMaBhe-73" value="" style="html=1;points=[[0,0,0,0,5],[0,1,0,0,-5],[1,0,0,0,5],[1,1,0,0,-5]];perimeter=orthogonalPerimeter;outlineConnect=0;targetShapes=umlLifeline;portConstraint=eastwest;newEdgeStyle={&quot;curved&quot;:0,&quot;rounded&quot;:0};" vertex="1" parent="BiDLs_91Af1u3nNMaBhe-34">
          <mxGeometry x="45" y="551" width="10" height="419" as="geometry" />
        </mxCell>
        <mxCell id="BiDLs_91Af1u3nNMaBhe-97" value="" style="html=1;points=[[0,0,0,0,5],[0,1,0,0,-5],[1,0,0,0,5],[1,1,0,0,-5]];perimeter=orthogonalPerimeter;outlineConnect=0;targetShapes=umlLifeline;portConstraint=eastwest;newEdgeStyle={&quot;curved&quot;:0,&quot;rounded&quot;:0};" vertex="1" parent="BiDLs_91Af1u3nNMaBhe-34">
          <mxGeometry x="45" y="1119" width="10" height="201" as="geometry" />
        </mxCell>
        <mxCell id="BiDLs_91Af1u3nNMaBhe-35" value="信息图谱" style="shape=umlLifeline;perimeter=lifelinePerimeter;whiteSpace=wrap;html=1;container=1;dropTarget=0;collapsible=0;recursiveResize=0;outlineConnect=0;portConstraint=eastwest;newEdgeStyle={&quot;curved&quot;:0,&quot;rounded&quot;:0};" vertex="1" parent="1">
          <mxGeometry x="780" y="40" width="100" height="1359" as="geometry" />
        </mxCell>
        <mxCell id="BiDLs_91Af1u3nNMaBhe-76" value="" style="html=1;points=[[0,0,0,0,5],[0,1,0,0,-5],[1,0,0,0,5],[1,1,0,0,-5]];perimeter=orthogonalPerimeter;outlineConnect=0;targetShapes=umlLifeline;portConstraint=eastwest;newEdgeStyle={&quot;curved&quot;:0,&quot;rounded&quot;:0};" vertex="1" parent="BiDLs_91Af1u3nNMaBhe-35">
          <mxGeometry x="45" y="419" width="10" height="80" as="geometry" />
        </mxCell>
        <mxCell id="BiDLs_91Af1u3nNMaBhe-38" value="创建备份任务" style="html=1;verticalAlign=bottom;endArrow=block;curved=0;rounded=0;entryX=0;entryY=0;entryDx=0;entryDy=5;entryPerimeter=0;" edge="1" parent="1" target="BiDLs_91Af1u3nNMaBhe-37">
          <mxGeometry x="0.0053" width="80" relative="1" as="geometry">
            <mxPoint x="100" y="129" as="sourcePoint" />
            <mxPoint x="280" y="129" as="targetPoint" />
            <mxPoint as="offset" />
          </mxGeometry>
        </mxCell>
        <mxCell id="BiDLs_91Af1u3nNMaBhe-39" value="返回创建备份任务结果状态" style="html=1;verticalAlign=bottom;endArrow=open;dashed=1;endSize=8;curved=0;rounded=0;" edge="1" parent="1" target="BiDLs_91Af1u3nNMaBhe-36">
          <mxGeometry x="0.0054" relative="1" as="geometry">
            <mxPoint x="280" y="179" as="sourcePoint" />
            <mxPoint x="120" y="179" as="targetPoint" />
            <mxPoint as="offset" />
          </mxGeometry>
        </mxCell>
        <mxCell id="BiDLs_91Af1u3nNMaBhe-46" value="获取需要备份的文件" style="html=1;verticalAlign=bottom;endArrow=block;curved=0;rounded=0;entryX=1;entryY=0;entryDx=0;entryDy=5;entryPerimeter=0;exitX=0;exitY=0;exitDx=0;exitDy=5;exitPerimeter=0;" edge="1" parent="1" source="BiDLs_91Af1u3nNMaBhe-41" target="BiDLs_91Af1u3nNMaBhe-42">
          <mxGeometry width="80" relative="1" as="geometry">
            <mxPoint x="360" y="249" as="sourcePoint" />
            <mxPoint x="440" y="249" as="targetPoint" />
          </mxGeometry>
        </mxCell>
        <mxCell id="BiDLs_91Af1u3nNMaBhe-47" value="备份文件列表" style="html=1;verticalAlign=bottom;endArrow=open;dashed=1;endSize=8;curved=0;rounded=0;exitX=1.1;exitY=0.382;exitDx=0;exitDy=0;exitPerimeter=0;" edge="1" parent="1">
          <mxGeometry relative="1" as="geometry">
            <mxPoint x="296" y="318.26199999999994" as="sourcePoint" />
            <mxPoint x="455" y="318.26199999999994" as="targetPoint" />
          </mxGeometry>
        </mxCell>
        <mxCell id="BiDLs_91Af1u3nNMaBhe-57" value="根据文件MD5判断&lt;br&gt;文件是否已经上传" style="html=1;verticalAlign=bottom;endArrow=block;curved=0;rounded=0;" edge="1" parent="1">
          <mxGeometry width="80" relative="1" as="geometry">
            <mxPoint x="455" y="378.5" as="sourcePoint" />
            <mxPoint x="295" y="378.5" as="targetPoint" />
          </mxGeometry>
        </mxCell>
        <mxCell id="BiDLs_91Af1u3nNMaBhe-64" value="返回文件上传信息" style="html=1;verticalAlign=bottom;endArrow=block;curved=0;rounded=0;dashed=1;" edge="1" parent="1">
          <mxGeometry width="80" relative="1" as="geometry">
            <mxPoint x="295" y="472.5" as="sourcePoint" />
            <mxPoint x="455" y="472.5" as="targetPoint" />
          </mxGeometry>
        </mxCell>
        <mxCell id="BiDLs_91Af1u3nNMaBhe-71" value="申请文件上传地址" style="html=1;verticalAlign=bottom;endArrow=block;curved=0;rounded=0;" edge="1" parent="1">
          <mxGeometry width="80" relative="1" as="geometry">
            <mxPoint x="455" y="654.5" as="sourcePoint" />
            <mxPoint x="295" y="654.5" as="targetPoint" />
          </mxGeometry>
        </mxCell>
        <mxCell id="BiDLs_91Af1u3nNMaBhe-72" value="获取文件上传地址" style="html=1;verticalAlign=bottom;endArrow=block;curved=0;rounded=0;" edge="1" parent="1">
          <mxGeometry width="80" relative="1" as="geometry">
            <mxPoint x="295" y="691" as="sourcePoint" />
            <mxPoint x="645" y="691" as="targetPoint" />
          </mxGeometry>
        </mxCell>
        <mxCell id="BiDLs_91Af1u3nNMaBhe-74" value="返回文件上传地址" style="html=1;verticalAlign=bottom;endArrow=open;dashed=1;endSize=8;curved=0;rounded=0;" edge="1" parent="1">
          <mxGeometry relative="1" as="geometry">
            <mxPoint x="645" y="733.5" as="sourcePoint" />
            <mxPoint x="295" y="733.5" as="targetPoint" />
          </mxGeometry>
        </mxCell>
        <mxCell id="BiDLs_91Af1u3nNMaBhe-75" value="返回文件上传地址" style="html=1;verticalAlign=bottom;endArrow=open;dashed=1;endSize=8;curved=0;rounded=0;" edge="1" parent="1">
          <mxGeometry relative="1" as="geometry">
            <mxPoint x="295" y="779.5" as="sourcePoint" />
            <mxPoint x="455" y="779.5" as="targetPoint" />
            <mxPoint as="offset" />
          </mxGeometry>
        </mxCell>
        <mxCell id="BiDLs_91Af1u3nNMaBhe-77" value="验证文件是否涉密" style="html=1;verticalAlign=bottom;endArrow=block;curved=0;rounded=0;" edge="1" parent="1">
          <mxGeometry width="80" relative="1" as="geometry">
            <mxPoint x="465" y="490" as="sourcePoint" />
            <mxPoint x="825" y="490" as="targetPoint" />
          </mxGeometry>
        </mxCell>
        <mxCell id="BiDLs_91Af1u3nNMaBhe-78" value="文件涉密信息" style="html=1;verticalAlign=bottom;endArrow=open;dashed=1;endSize=8;curved=0;rounded=0;" edge="1" parent="1">
          <mxGeometry relative="1" as="geometry">
            <mxPoint x="825" y="522" as="sourcePoint" />
            <mxPoint x="465" y="522" as="targetPoint" />
          </mxGeometry>
        </mxCell>
        <mxCell id="BiDLs_91Af1u3nNMaBhe-80" value="文件涉密则直接中断上传" style="html=1;verticalAlign=bottom;endArrow=block;curved=0;rounded=0;" edge="1" parent="1">
          <mxGeometry width="80" relative="1" as="geometry">
            <mxPoint x="455" y="548.5" as="sourcePoint" />
            <mxPoint x="295" y="548.5" as="targetPoint" />
          </mxGeometry>
        </mxCell>
        <mxCell id="BiDLs_91Af1u3nNMaBhe-82" value="文件上传" style="html=1;verticalAlign=bottom;endArrow=block;curved=0;rounded=0;" edge="1" parent="1" target="BiDLs_91Af1u3nNMaBhe-73">
          <mxGeometry width="80" relative="1" as="geometry">
            <mxPoint x="470" y="799" as="sourcePoint" />
            <mxPoint x="550" y="799" as="targetPoint" />
          </mxGeometry>
        </mxCell>
        <mxCell id="BiDLs_91Af1u3nNMaBhe-84" value="更新文件信息" style="html=1;verticalAlign=bottom;endArrow=block;curved=0;rounded=0;" edge="1" parent="1">
          <mxGeometry width="80" relative="1" as="geometry">
            <mxPoint x="455" y="841.5" as="sourcePoint" />
            <mxPoint x="295" y="841.5" as="targetPoint" />
            <mxPoint as="offset" />
          </mxGeometry>
        </mxCell>
        <mxCell id="BiDLs_91Af1u3nNMaBhe-86" value="大文件的文件合并请求" style="html=1;verticalAlign=bottom;endArrow=block;curved=0;rounded=0;" edge="1" parent="1">
          <mxGeometry width="80" relative="1" as="geometry">
            <mxPoint x="295" y="887" as="sourcePoint" />
            <mxPoint x="645" y="887" as="targetPoint" />
          </mxGeometry>
        </mxCell>
        <mxCell id="BiDLs_91Af1u3nNMaBhe-87" value="文件上传结果" style="html=1;verticalAlign=bottom;endArrow=open;dashed=1;endSize=8;curved=0;rounded=0;" edge="1" parent="1">
          <mxGeometry relative="1" as="geometry">
            <mxPoint x="645" y="825.5" as="sourcePoint" />
            <mxPoint x="465" y="825.5" as="targetPoint" />
          </mxGeometry>
        </mxCell>
        <mxCell id="BiDLs_91Af1u3nNMaBhe-89" value="文件合并结果" style="html=1;verticalAlign=bottom;endArrow=open;dashed=1;endSize=8;curved=0;rounded=0;" edge="1" parent="1">
          <mxGeometry relative="1" as="geometry">
            <mxPoint x="645" y="913.5" as="sourcePoint" />
            <mxPoint x="295" y="913.5" as="targetPoint" />
          </mxGeometry>
        </mxCell>
        <mxCell id="BiDLs_91Af1u3nNMaBhe-90" value="返回文件信息更新结果" style="html=1;verticalAlign=bottom;endArrow=open;dashed=1;endSize=8;curved=0;rounded=0;" edge="1" parent="1">
          <mxGeometry relative="1" as="geometry">
            <mxPoint x="295" y="956.5" as="sourcePoint" />
            <mxPoint x="455" y="956.5" as="targetPoint" />
            <mxPoint as="offset" />
          </mxGeometry>
        </mxCell>
        <mxCell id="BiDLs_91Af1u3nNMaBhe-93" value="备份任务还原" style="html=1;verticalAlign=bottom;endArrow=block;curved=0;rounded=0;entryX=0;entryY=0;entryDx=0;entryDy=5;entryPerimeter=0;" edge="1" parent="1" source="BiDLs_91Af1u3nNMaBhe-91" target="BiDLs_91Af1u3nNMaBhe-92">
          <mxGeometry width="80" relative="1" as="geometry">
            <mxPoint x="100" y="1049" as="sourcePoint" />
            <mxPoint x="180" y="1049" as="targetPoint" />
          </mxGeometry>
        </mxCell>
        <mxCell id="BiDLs_91Af1u3nNMaBhe-94" value="返回备份任务还原状态" style="html=1;verticalAlign=bottom;endArrow=open;dashed=1;endSize=8;curved=0;rounded=0;exitX=0;exitY=1;exitDx=0;exitDy=-5;exitPerimeter=0;" edge="1" parent="1" source="BiDLs_91Af1u3nNMaBhe-92" target="BiDLs_91Af1u3nNMaBhe-91">
          <mxGeometry relative="1" as="geometry">
            <mxPoint x="210" y="1109" as="sourcePoint" />
            <mxPoint x="130" y="1109" as="targetPoint" />
            <mxPoint as="offset" />
          </mxGeometry>
        </mxCell>
        <mxCell id="BiDLs_91Af1u3nNMaBhe-98" value="获取还原文件列表" style="html=1;verticalAlign=bottom;endArrow=block;curved=0;rounded=0;exitX=0;exitY=0;exitDx=0;exitDy=5;exitPerimeter=0;entryX=1;entryY=0;entryDx=0;entryDy=5;entryPerimeter=0;" edge="1" parent="1" source="BiDLs_91Af1u3nNMaBhe-95" target="BiDLs_91Af1u3nNMaBhe-96">
          <mxGeometry width="80" relative="1" as="geometry">
            <mxPoint x="340" y="1199" as="sourcePoint" />
            <mxPoint x="420" y="1199" as="targetPoint" />
          </mxGeometry>
        </mxCell>
        <mxCell id="BiDLs_91Af1u3nNMaBhe-99" value="需要还原的文件" style="html=1;verticalAlign=bottom;endArrow=open;dashed=1;endSize=8;curved=0;rounded=0;" edge="1" parent="1" target="BiDLs_91Af1u3nNMaBhe-95">
          <mxGeometry x="-0.003" relative="1" as="geometry">
            <mxPoint x="295" y="1210.5" as="sourcePoint" />
            <mxPoint x="450" y="1209" as="targetPoint" />
            <mxPoint as="offset" />
          </mxGeometry>
        </mxCell>
        <mxCell id="BiDLs_91Af1u3nNMaBhe-100" value="下载文件" style="html=1;verticalAlign=bottom;endArrow=block;curved=0;rounded=0;" edge="1" parent="1">
          <mxGeometry width="80" relative="1" as="geometry">
            <mxPoint x="465" y="1240.5" as="sourcePoint" />
            <mxPoint x="645" y="1240.5" as="targetPoint" />
          </mxGeometry>
        </mxCell>
        <mxCell id="BiDLs_91Af1u3nNMaBhe-101" value="返回文件流" style="html=1;verticalAlign=bottom;endArrow=open;dashed=1;endSize=8;curved=0;rounded=0;" edge="1" parent="1">
          <mxGeometry relative="1" as="geometry">
            <mxPoint x="645" y="1284.5" as="sourcePoint" />
            <mxPoint x="465" y="1284.5" as="targetPoint" />
          </mxGeometry>
        </mxCell>
        <mxCell id="BiDLs_91Af1u3nNMaBhe-102" value="更新文件还原信息" style="html=1;verticalAlign=bottom;endArrow=block;curved=0;rounded=0;" edge="1" parent="1">
          <mxGeometry width="80" relative="1" as="geometry">
            <mxPoint x="455" y="1307.5" as="sourcePoint" />
            <mxPoint x="295" y="1307.5" as="targetPoint" />
            <mxPoint as="offset" />
          </mxGeometry>
        </mxCell>
        <mxCell id="BiDLs_91Af1u3nNMaBhe-103" value="返回更新文件还原信息结果" style="html=1;verticalAlign=bottom;endArrow=open;dashed=1;endSize=8;curved=0;rounded=0;entryX=0.3;entryY=0.644;entryDx=0;entryDy=0;entryPerimeter=0;" edge="1" parent="1">
          <mxGeometry x="-0.0061" relative="1" as="geometry">
            <mxPoint x="295" y="1336.444" as="sourcePoint" />
            <mxPoint x="458" y="1336.444" as="targetPoint" />
            <mxPoint as="offset" />
          </mxGeometry>
        </mxCell>
      </root>
    </mxGraphModel>
  </diagram>
</mxfile>
